<svg width="24" height="24" viewBox="0 0 24 24" fill="none" xmlns="http://www.w3.org/2000/svg">
<path d="M11.84 9.04982C10.2936 9.04982 9.04004 10.3034 9.04004 11.8498C9.04004 13.3962 10.2936 14.6498 11.84 14.6498C13.3864 14.6498 14.64 13.3962 14.64 11.8498C14.6427 11.1064 14.3486 10.3927 13.8229 9.86698C13.2972 9.3413 12.5835 9.04715 11.84 9.04982V9.04982Z" fill="#8B9EFF"/>
<path fill-rule="evenodd" clip-rule="evenodd" d="M15.69 2H8C4.68629 2 2 4.68629 2 8V15.69C2 19.0037 4.68629 21.69 8 21.69H15.69C19.0037 21.69 21.69 19.0037 21.69 15.69V8C21.69 4.68629 19.0037 2 15.69 2ZM11.84 16.14C9.47298 16.1345 7.5555 14.217 7.55 11.85C7.54596 10.109 8.59213 8.53737 10.1998 7.86924C11.8075 7.20112 13.6595 7.56838 14.8905 8.79945C16.1216 10.0305 16.4889 11.8825 15.8208 13.4902C15.1526 15.0979 13.581 16.144 11.84 16.14ZM15.5749 6.91176C15.7462 7.31997 16.1473 7.58404 16.59 7.58C17.1865 7.58 17.67 7.09647 17.67 6.5C17.674 6.05734 17.41 5.6562 17.0018 5.48493C16.5936 5.31366 16.1223 5.40628 15.8093 5.7193C15.4963 6.03232 15.4037 6.50356 15.5749 6.91176Z" fill="#8B9EFF"/>
</svg>
