<svg width="85" height="122" viewBox="0 0 85 122" fill="none" xmlns="http://www.w3.org/2000/svg">
<path fill-rule="evenodd" clip-rule="evenodd" d="M42.2004 0.00111117C41.9263 -0.00977396 41.6551 0.0594947 41.4196 0.201L34.5996 4.27497L26.7605 3.14689C26.2459 3.07268 25.7303 3.28642 25.4196 3.70302L20.653 10.1045L12.9811 12.1094C12.4814 12.24 12.0925 12.6309 11.9648 13.1306L9.98474 20.8917L3.64958 25.7138C3.24188 26.0255 3.0321 26.5321 3.10336 27.0407L4.21956 34.9759L0.192958 41.8732C-0.0643193 42.3145 -0.0643193 42.8607 0.192958 43.3031L4.21956 50.214L3.10336 58.1502C3.03211 58.6598 3.24091 59.1675 3.65059 59.4782L9.98473 64.2863L11.9648 72.0454C12.0925 72.5461 12.4824 72.937 12.9811 73.0676L19.8495 74.8626L3.84949 120.583C3.84949 121.195 4.24333 121.738 4.8252 121.929C5.40607 122.121 6.04531 121.917 6.40947 121.425L42.147 104.697L81.8846 121.425C82.2488 121.917 82.888 122.121 83.4689 121.929C84.0507 121.738 84.4436 121.194 84.4446 120.582L64.4446 74.8617L71.2993 73.0676C71.7981 72.937 72.186 72.5471 72.3146 72.0484L74.3075 64.2862L80.6308 59.4771C81.0385 59.1674 81.2473 58.6607 81.177 58.1531L80.0737 50.2159L84.101 43.3029C84.3583 42.8606 84.3583 42.3144 84.101 41.873L80.0744 34.975L81.1778 27.0378L81.1768 27.0388C81.247 26.5312 81.0392 26.0255 80.6325 25.7148L74.3083 20.8917L72.3143 13.1286C72.1867 12.6298 71.7978 12.2399 71.3 12.1093L63.641 10.1045L58.8745 3.70297C58.5637 3.28637 58.0492 3.07262 57.5336 3.14684L49.6934 4.27394L42.8744 0.200974C42.6696 0.0782688 42.439 0.00999042 42.2015 0.00108604L42.2004 0.00111117ZM42.1459 3.07065L48.6691 6.96755C48.9481 7.13479 49.2776 7.2001 49.6002 7.15359L57.102 6.07399L61.6628 12.1974L61.6618 12.1984C61.8548 12.4566 62.1289 12.6417 62.4406 12.7238L69.7731 14.6425L71.682 22.0741C71.7621 22.3828 71.9412 22.6559 72.1955 22.8489L78.2525 27.467L77.1957 35.0698C77.1521 35.3855 77.2145 35.7061 77.3748 35.9812L81.2329 42.5894L77.3748 49.2116L77.3738 49.2106C77.2145 49.4857 77.1511 49.8063 77.1947 50.121L78.2515 57.7218L72.1976 62.3272L72.1966 62.3262C71.9423 62.5202 71.7612 62.7933 71.681 63.103L69.7722 70.5346L62.4397 72.4533C62.128 72.5355 61.8548 72.7205 61.6619 72.9788L57.101 79.1042L49.5973 78.0375C49.2767 77.9919 48.9501 78.0572 48.6721 78.2225L42.1459 82.1075L35.6207 78.2225C35.3427 78.0572 35.0161 77.9909 34.6955 78.0375L27.1928 79.1042L22.6319 72.9788C22.439 72.7205 22.1639 72.5345 21.8522 72.4533L14.5078 70.5346L12.6128 63.1051C12.5336 62.7943 12.3506 62.5193 12.0952 62.3263L6.02935 57.7229L7.09808 50.1241C7.14261 49.8085 7.07928 49.4859 6.91898 49.2108L3.06083 42.5886L6.91821 35.9804C7.07951 35.7043 7.14284 35.3837 7.09831 35.068L6.0286 27.4672L12.0965 22.8499C12.3518 22.6559 12.5329 22.3818 12.6121 22.0721L14.5071 14.6426L21.8515 12.7238C22.1632 12.6417 22.4383 12.4566 22.6312 12.1984L27.1911 6.075L34.6928 7.1546L34.6938 7.15361C35.0154 7.20012 35.3439 7.13481 35.623 6.96758L42.1471 3.07067L42.1459 3.07065ZM22.6855 77.8016L25.4186 81.4717C25.7294 81.8883 26.2429 82.1021 26.7575 82.0298L34.5997 80.9156L41.4207 84.9767C41.868 85.2438 42.4251 85.2429 42.8724 84.9757L49.6934 80.9146L57.5356 82.0288C58.0502 82.1011 58.5628 81.8883 58.8735 81.4717L61.6066 77.8016L81 118L43.2881 101.466C43.021 101.104 42.5974 100.889 42.1472 100.889C41.697 100.889 41.2734 101.103 41.0053 101.465L7.5 118L22.6868 77.8021L22.6855 77.8016Z" fill="#BDC4E4"/>
<path fill-rule="evenodd" clip-rule="evenodd" d="M42.1396 15.6348C27.2706 15.6348 15.1832 27.7212 15.1832 42.5911C15.1832 57.46 27.2696 69.5474 42.1396 69.5474C57.0085 69.5474 69.0959 57.461 69.0959 42.5911C69.0959 27.7222 57.0095 15.6348 42.1396 15.6348V15.6348ZM42.1396 18.4897C55.4759 18.4897 66.2776 29.255 66.2776 42.5903C66.2776 55.9266 55.4756 66.6909 42.1396 66.6909C28.8033 66.6909 18.039 55.9256 18.039 42.5903C18.039 29.254 28.8033 18.4897 42.1396 18.4897Z" fill="#BDC4E4"/>
</svg>
