<svg width="108" height="126" viewBox="0 0 108 126" fill="none" xmlns="http://www.w3.org/2000/svg">
<path d="M54.0802 82.32V82.32C51.6052 82.32 49.1661 82.0721 46.7433 81.3454L45.456 80.9593V82.3032V93.4855V94.4855H46.456H61.7041H62.7041V93.4855V82.3042V80.9602L61.4168 81.3463C58.9943 82.073 56.5553 82.32 54.0802 82.32Z" stroke="#BDC4E4" stroke-width="2"/>
<path d="M36.2923 97.5688H35.2923V98.5688V106.193V107.193H36.2923H71.8705H72.8705V106.193V98.5688V97.5688H71.8705H36.2923Z" stroke="#BDC4E4" stroke-width="2"/>
<path d="M26.1264 110.276H25.1264V111.276V123.983V124.983H26.1264H82.034H83.034V123.983V111.276V110.276H82.034H26.1264Z" stroke="#BDC4E4" stroke-width="2"/>
<path d="M18.2814 13.7059H3H1.90487L2.00411 14.7966L2.25513 17.5551C2.28251 18.6981 3.09903 27.6847 6.61075 36.7016C10.0942 45.6461 16.3955 55.0121 27.5846 56.2907L28.4501 60.401L28.45 60.401L28.4519 60.4093C30.8557 71.3609 41.746 79.238 54.0788 79.238C66.4315 79.238 77.0379 71.3479 79.7004 60.4319L79.7042 60.4165L79.7074 60.401L80.573 56.2907C91.7624 55.0122 98.0636 45.6461 101.547 36.7016C105.059 27.6844 105.875 18.6976 105.902 17.5551L106.153 14.7966L106.253 13.7059H105.158H89.8783L90.3781 11.3732C90.9572 9.03097 90.3687 6.43227 88.6594 4.42223C86.9252 2.1287 84.3355 1 81.5261 1H26.888C24.1025 1 21.233 2.11325 19.4807 4.44924L19.4737 4.45864L19.4668 4.46822C18.0999 6.38268 17.1889 8.70242 17.779 11.3621L18.2814 13.7059ZM88.4238 20.7886H98.4124C97.8203 24.6042 96.5522 30.7104 94.0206 36.3085C91.4341 42.0279 87.635 46.9939 82.0966 48.6791L88.4238 20.7886ZM19.7303 20.7886L25.8225 48.6713C20.4061 46.9829 16.667 42.0284 14.11 36.3113C11.6057 30.7119 10.34 24.6043 9.74823 20.7886H19.7303Z" stroke="#BDC4E4" stroke-width="2"/>
</svg>
