<svg width="232" height="122" viewBox="0 0 232 122" fill="none" xmlns="http://www.w3.org/2000/svg">
<path d="M93.4207 72.4997L116.972 60.1083L140.523 72.4997L136.02 46.264L154.955 27.6916L128.606 23.8597L116.831 0L105.057 23.8597L78.7075 27.6916L97.7558 46.264L93.4207 72.4997ZM84.7504 29.6486L106.93 26.4313L116.859 6.31956L126.788 26.4313L148.967 29.6486L132.912 45.2845L136.687 67.3801L116.827 56.9477L96.9673 67.3801L100.743 45.2845L84.7504 29.6486Z" fill="#BDC4E4"/>
<path d="M230.476 41.0078C226.985 40.0459 223.253 40.6156 220.209 42.5744C219.292 43.111 218.43 43.7392 217.636 44.4475C218.586 41.6496 219.37 39.0487 220.041 36.3076C222.905 34.1224 224.745 30.8563 225.131 27.2741C225.256 26.242 225.256 25.2002 225.131 24.17C225.005 23.2179 224.79 22.2834 224.489 21.3722C223.894 19.6104 222.942 17.991 221.692 16.6175L220.712 15.4995L219.649 16.5336H219.651C218.377 17.7745 217.335 19.2338 216.574 20.8415C216.172 21.6844 215.854 22.5643 215.622 23.4696C215.364 24.2832 215.167 25.1163 215.035 25.9591C214.717 29.3306 215.438 32.7175 217.105 35.6659C216.352 38.811 215.417 41.9112 214.307 44.951C214.258 43.3394 213.897 41.7533 213.245 40.2802C211.657 37.1058 208.75 34.794 205.301 33.9589L203.986 33.6233L203.623 34.9383C203.416 35.668 203.285 36.4191 203.231 37.1762C203.1 37.9702 203.053 38.776 203.092 39.5818C203.182 41.2987 203.611 42.9806 204.351 44.5317C205.75 47.6924 208.27 50.2246 211.427 51.6357C208.69 57.4165 205.322 62.8758 201.385 67.9154C201.902 66.0209 202.035 64.0445 201.777 62.0976C201.497 59.9826 200.667 57.9769 199.372 56.2797C198.149 54.7306 196.638 53.4293 194.925 52.4478L193.694 51.6928L192.996 52.9512H192.994C192.075 54.4808 191.371 56.1276 190.896 57.8464C190.452 59.7721 190.366 61.7642 190.645 63.7212C191.016 67.7833 192.902 71.5584 195.932 74.294C193.411 76.9982 190.721 79.5405 187.876 81.901C185.917 83.495 183.877 84.9778 181.807 86.404C183.931 83.413 184.928 79.7665 184.622 76.1124C184.316 72.4561 182.724 69.0279 180.129 66.4331L179.149 65.3425L177.891 66.5736C176.457 67.8398 175.232 69.3207 174.254 70.9654C173.232 72.9224 172.488 75.012 172.046 77.1739C171.117 81.7959 171.872 86.5974 174.17 90.712C168.945 93.5293 163.443 95.7966 157.752 97.4804C160.088 95.8337 161.941 93.5939 163.123 90.9912C165.353 86.0258 165.168 80.3071 162.618 75.4961L161.974 74.1538L159.877 75.2718H159.879C158.125 76.0834 156.527 77.1897 155.151 78.5457C153.446 80.286 151.987 82.2527 150.816 84.391C149.583 86.7498 148.734 89.2901 148.297 91.914C147.802 94.4738 147.802 97.104 148.297 99.6618C143.972 100.397 139.596 100.807 135.208 100.893C134.775 94.3239 131.017 88.4316 125.246 85.2669C119.472 82.1004 112.484 82.1004 106.713 85.2669C100.939 88.4315 97.184 94.3239 96.7489 100.893C92.361 100.807 87.9867 100.397 83.6593 99.6618C84.1529 97.1137 84.1529 94.4913 83.6593 91.9435C83.2222 89.3174 82.3735 86.7769 81.1424 84.4184C79.9698 82.2821 78.5124 80.3154 76.8071 78.5731C75.4316 77.2191 73.8318 76.1109 72.0797 75.3012L69.9824 74.1832L69.3385 75.5256V75.5236C66.7884 80.3349 66.6031 86.0535 68.8351 91.0207C70.0175 93.6215 71.871 95.8613 74.2044 97.5078C68.4975 95.865 62.9778 93.635 57.7299 90.8529C59.958 86.7615 60.6721 82.0182 59.7453 77.4551C59.2986 75.3011 58.5552 73.2213 57.5348 71.2721C56.6743 69.6352 55.5701 68.1348 54.2629 66.8257L52.9771 65.5673L51.9977 66.6579C48.6341 70.1327 47.0478 74.9556 47.6898 79.7475C48.0097 81.9737 48.7902 84.1082 49.9822 86.0124C48.117 84.6877 46.2538 83.2907 44.3887 81.8177C41.5343 79.4471 38.834 76.8971 36.3052 74.1812C40.4902 69.9357 42.2639 63.8756 41.0326 58.0423C40.5507 56.3137 39.8347 54.6573 38.906 53.1198L38.2075 51.8614L36.9764 52.6164C35.2438 53.6544 33.7318 55.0221 32.53 56.6453C31.2305 58.3506 30.4014 60.366 30.1243 62.4907C29.9097 64.073 29.9565 65.6787 30.2648 67.2454C26.587 62.4145 23.428 57.211 20.8373 51.7208C23.7697 50.2595 26.0972 47.8148 27.4103 44.8121C28.1419 43.2493 28.5614 41.5578 28.6414 39.835C28.6765 39.0663 28.6297 38.2976 28.5009 37.5405C28.4502 36.7367 28.3195 35.9407 28.1107 35.1641L27.7478 33.8491L26.4328 34.1847H26.4309C22.9443 35.0198 20.0102 37.3688 18.4313 40.5899C18.006 41.5538 17.7036 42.5683 17.5377 43.6102C16.6227 40.9997 15.813 38.3523 15.1028 35.6676C16.6851 32.6727 17.3095 29.2664 16.8939 25.9044C16.7456 25.0226 16.531 24.1524 16.25 23.3037C16.0256 22.4277 15.7174 21.5751 15.3271 20.7595C14.574 19.185 13.5516 17.7568 12.3069 16.5355L11.2435 15.5014L10.2641 16.6194C9.0135 17.9929 8.06136 19.6123 7.46824 21.3741C7.16778 22.2852 6.95319 23.2217 6.82437 24.1719C6.55903 28.87 8.60569 33.4021 12.3071 36.3096C13.109 39.5717 14.1001 42.7852 15.2707 45.9324C14.1723 44.6973 12.8905 43.6399 11.4681 42.799C8.43812 40.8616 4.72525 40.3016 1.25842 41.2616L0 41.6537L0.308267 42.9395C0.554102 43.9735 0.889703 44.9842 1.315 45.9597C1.78911 46.8807 2.34126 47.7606 2.9656 48.5897C4.1967 50.1603 5.72633 51.4714 7.46864 52.449C9.16019 53.4576 11.0918 53.9883 13.0622 53.9883C14.7772 53.9805 16.4688 53.5903 18.0121 52.8411H18.2364C21.1123 58.9361 24.6691 64.688 28.8367 69.9869C27.0457 68.8222 25.0692 67.9715 22.9914 67.4701C20.8764 66.9725 18.6932 66.8301 16.5313 67.0506C14.4807 67.2867 12.516 68.0047 10.7973 69.148L9.734 69.8464L10.3486 70.9644V70.9663C11.6109 73.1847 13.3493 75.0948 15.4387 76.5599C17.3976 78.0466 19.6472 79.1061 22.0412 79.664C22.9641 79.8318 23.9006 79.9157 24.8371 79.9157C28.2944 79.9469 31.6229 78.6104 34.0968 76.1951C36.7229 78.9831 39.5246 81.5993 42.4864 84.0288C44.5194 85.6891 46.6266 87.2461 48.8077 88.6996C46.3592 88.0245 43.8208 87.7416 41.2847 87.8606C36.3154 87.8997 31.594 90.0322 28.279 93.7334L27.4673 94.7128L28.3629 95.6084C30.5539 97.6609 33.1566 99.2237 35.9973 100.195C38.0869 101.005 40.3033 101.43 42.5429 101.454C43.2043 101.499 43.8676 101.499 44.5291 101.454C49.5962 101.032 54.0929 98.0453 56.4439 93.5381C61.9811 96.4764 67.8129 98.8195 73.8415 100.531C70.8213 100.693 67.8379 101.266 64.9739 102.236C59.6006 103.924 55.1658 107.761 52.7234 112.838L52.22 114.013L53.338 114.627H53.3399C56.4597 116.145 59.8585 117.012 63.3254 117.174H64.976H64.974C67.7894 117.146 70.5676 116.545 73.1429 115.412C75.7924 114.362 78.118 112.633 79.8857 110.4C81.6534 108.166 82.8006 105.504 83.2123 102.685C87.7037 103.462 92.2477 103.901 96.8054 103.998C97.2386 110.567 100.996 116.46 106.767 119.626C112.541 122.791 119.529 122.791 125.3 119.626C131.074 116.46 134.829 110.567 135.264 103.998C139.822 103.901 144.366 103.462 148.857 102.685C149.269 105.505 150.414 108.166 152.184 110.4C153.952 112.634 156.277 114.362 158.927 115.412C161.492 116.543 164.263 117.142 167.067 117.174H168.688C172.155 117.012 175.554 116.145 178.673 114.627L179.791 114.013L179.288 112.838H179.29C176.847 107.762 172.412 103.924 167.039 102.236C164.175 101.266 161.192 100.693 158.172 100.531C164.2 98.8196 170.032 96.4764 175.569 93.5381C177.92 98.0002 182.377 100.96 187.401 101.397C188.072 101.442 188.745 101.442 189.414 101.397C191.691 101.342 193.939 100.868 196.044 99.9979C198.877 99.0263 201.47 97.4635 203.651 95.411L204.546 94.5154L203.735 93.536V93.5379C200.424 89.8465 195.716 87.7141 190.756 87.6632C188.452 87.55 186.144 87.7763 183.904 88.3344C185.9 86.9725 187.83 85.5287 189.695 83.9991C192.657 81.572 195.458 78.9554 198.087 76.1674C200.539 78.4462 203.772 79.6968 207.12 79.6637C208.059 79.6637 208.995 79.5798 209.918 79.412C212.298 78.8696 214.538 77.8316 216.491 76.3625C218.582 74.9011 220.323 72.991 221.581 70.7689L222.196 69.6509L221.132 68.9525V68.9505C219.413 67.8091 217.449 67.0911 215.398 66.8531C213.246 66.6346 211.073 66.7751 208.966 67.2726C207.315 67.6609 205.725 68.2716 204.238 69.091C208.096 64.0493 211.407 58.6101 214.113 52.8682C215.541 53.4984 217.082 53.832 218.643 53.8476C220.612 53.8612 222.545 53.3384 224.239 52.3375C225.997 51.3132 227.528 49.9435 228.742 48.3085C229.382 47.4286 229.944 46.4921 230.42 45.5127C230.824 44.6093 231.149 43.6728 231.399 42.7148L231.707 41.4291L230.476 41.0078ZM211.289 48.4474H211.287C209.352 47.2104 207.826 45.4291 206.895 43.3298C206.308 42.1123 205.966 40.7915 205.888 39.4413C205.82 38.7896 205.82 38.1341 205.888 37.4824V37.1195C207.962 37.9292 209.658 39.4862 210.643 41.4821C211.234 42.7913 211.531 44.2156 211.511 45.6516C211.535 46.5959 211.412 47.5402 211.147 48.4474L211.289 48.4474ZM193.556 63.2717H193.554C193.31 61.6445 193.366 59.9842 193.722 58.3765C193.983 57.4087 194.35 56.4703 194.812 55.5806C195.735 56.281 196.555 57.1102 197.245 58.0409C198.258 59.3617 198.904 60.9245 199.12 62.5732C199.36 64.3369 199.206 66.1319 198.673 67.8311C198.301 69.031 197.692 70.1431 196.882 71.103C194.914 68.9334 193.698 66.1883 193.413 63.2713L193.556 63.2717ZM175.04 77.8168H175.038C175.425 75.9184 176.074 74.0824 176.968 72.3616C177.586 71.3275 178.349 70.3851 179.233 69.5657C181.452 72.2503 182.462 75.7311 182.031 79.1865C181.733 81.2019 180.966 83.1179 179.793 84.7821C178.783 86.0463 177.596 87.1565 176.268 88.0813C174.759 84.8855 174.27 81.3015 174.871 77.8167L175.04 77.8168ZM151.294 92.3619H151.29C151.678 90.0284 152.433 87.773 153.528 85.6755C154.531 83.7595 155.793 81.9919 157.276 80.4175C158.29 79.4205 159.463 78.5992 160.745 77.9846C162.39 81.7267 162.39 85.9896 160.745 89.7321C158.872 93.6732 155.313 96.5549 151.068 97.5638C150.834 95.8371 150.851 94.0831 151.122 92.3623L151.294 92.3619ZM71.8031 89.8157H71.7992C70.1545 86.0736 70.1545 81.8107 71.7992 78.0682C73.0811 78.673 74.2537 79.4846 75.2682 80.4738C76.8095 82.0269 78.1265 83.7887 79.184 85.7048C80.2824 87.808 81.0375 90.0752 81.4218 92.4167C81.7399 94.1609 81.7964 95.9422 81.5896 97.7041C77.2446 96.7578 73.5786 93.8566 71.6607 89.8434L71.8031 89.8157ZM53.1744 69.6496H53.1724C54.0641 70.469 54.8366 71.4114 55.4649 72.4455C56.3565 74.1566 57.0062 75.9827 57.3945 77.8732C58.0891 81.3364 57.6969 84.9302 56.2765 88.1648C54.9498 87.2498 53.7636 86.1474 52.7529 84.8929C51.5628 83.2325 50.7784 81.3166 50.4584 79.2993C49.9609 75.8752 50.8916 72.3966 53.0319 69.6765L53.1744 69.6496ZM33.0357 62.7973H33.0337C33.1859 61.1701 33.7537 59.6093 34.6843 58.265C35.3731 57.3344 36.1925 56.5052 37.1173 55.8047C37.5875 56.6944 37.9621 57.6309 38.2353 58.6006C39.1542 63.0978 38.0031 67.7704 35.1038 71.3271C34.2805 70.3497 33.662 69.218 33.2855 67.9986C32.784 66.3226 32.6494 64.557 32.8933 62.8246L33.0357 62.7973ZM21.0933 41.6792H21.0894C22.0591 39.6735 23.7448 38.1049 25.8168 37.2873V37.818C25.8832 38.4326 25.8832 39.0511 25.8168 39.6657C25.7466 41.0119 25.413 42.3327 24.8374 43.5522C23.9126 45.6632 22.3849 47.4543 20.4475 48.6992C20.1743 47.792 20.0436 46.8496 20.0553 45.9033C20.0436 44.4556 20.348 43.0236 20.9509 41.7066L21.0933 41.6792ZM9.01062 50.0708H9.00672C7.54537 49.2631 6.25962 48.1685 5.23141 46.8535C4.71636 46.1726 4.25979 45.4526 3.85982 44.6995C3.69202 44.364 3.55155 43.9718 3.44034 43.5816C5.79919 43.3767 8.15995 43.9562 10.1537 45.2322C11.5195 46.0243 12.7331 47.0564 13.7339 48.2798C14.4051 49.1558 14.9963 50.0923 15.4957 51.0776C13.2617 51.6941 10.8737 51.3605 8.89521 50.1547L9.01062 50.0708ZM22.7166 76.9234L22.7127 76.9214C20.6817 76.4512 18.7755 75.5557 17.1191 74.2933C15.7358 73.3159 14.5262 72.114 13.5389 70.7405C14.5944 70.2313 15.7299 69.8996 16.8948 69.7611C18.7658 69.564 20.6584 69.6869 22.4883 70.1259C24.4296 70.5864 26.2695 71.4019 27.9141 72.5296C29.0633 73.2924 30.1559 74.1334 31.188 75.0484C28.7355 76.898 25.6099 77.6102 22.5996 77.0054L22.7166 76.9234ZM9.92914 26.8814C9.8433 26.1009 9.8433 25.3127 9.92914 24.5323C10.0325 23.7441 10.2101 22.9656 10.4618 22.2106C10.7408 21.3365 11.1251 20.5014 11.6071 19.721C12.169 20.4292 12.647 21.1979 13.0353 22.0155C13.3669 22.7335 13.6284 23.4827 13.8176 24.2533C14.0381 24.9382 14.2059 25.6386 14.321 26.3507C14.6195 28.7193 14.2722 31.1269 13.3143 33.3138C11.4881 31.6164 10.296 29.3473 9.9292 26.8812L9.92914 26.8814ZM44.2778 98.5705C41.837 98.8436 39.367 98.508 37.0879 97.593C35.0764 96.8731 33.1897 95.8429 31.4943 94.5435C34.3038 92.091 37.892 90.7135 41.6201 90.655C43.9224 90.5438 46.2266 90.8091 48.4449 91.4393C50.1813 91.8217 51.8572 92.4441 53.424 93.285C51.3559 96.3657 47.9788 98.3187 44.2777 98.5704L44.2778 98.5705ZM77.8417 108.248V108.25C76.3121 110.207 74.2966 111.728 71.9964 112.669C69.3625 113.841 66.4788 114.341 63.6048 114.122C60.9729 113.98 58.3778 113.432 55.914 112.501C58.224 108.757 61.7942 105.959 65.9833 104.613C70.5449 103.038 75.4263 102.617 80.1908 103.382C79.783 105.183 79.0221 106.884 77.9529 108.388L77.8417 108.248ZM166.143 104.64C170.33 105.988 173.901 108.784 176.213 112.528C173.746 113.461 171.151 114.007 168.52 114.15C165.646 114.37 162.762 113.871 160.13 112.696C157.863 111.779 155.869 110.296 154.339 108.388C153.293 106.888 152.552 105.196 152.158 103.409C156.85 102.683 161.65 103.107 166.143 104.64L166.143 104.64ZM190.477 90.4872C194.239 90.5359 197.858 91.9251 200.687 94.4029C198.993 95.7062 197.105 96.7344 195.093 97.4524C192.806 98.3753 190.325 98.7128 187.876 98.4319C184.202 98.1568 180.86 96.2077 178.813 93.1445C180.39 92.3035 182.075 91.6831 183.82 91.2987C186.007 90.6549 188.284 90.37 190.56 90.4598L190.477 90.4872ZM116.131 118.877C111.754 118.877 107.556 117.139 104.462 114.044C101.367 110.95 99.6288 106.751 99.6288 102.375C99.6288 97.999 101.367 93.8002 104.462 90.706C107.556 87.6116 111.755 85.8732 116.131 85.8732C120.507 85.8732 124.706 87.6116 127.8 90.706C130.894 93.8004 132.633 97.9993 132.633 102.375C132.625 106.749 130.884 110.942 127.792 114.037C124.698 117.129 120.505 118.87 116.13 118.877L116.131 118.877ZM209.497 69.9584C211.327 69.5194 213.218 69.3965 215.09 69.5936C216.255 69.7321 217.389 70.0638 218.446 70.573C217.465 71.9368 216.265 73.1269 214.893 74.0966C213.284 75.3218 211.436 76.1979 209.468 76.67C206.537 77.2397 203.499 76.5705 201.076 74.8243C202.153 73.8722 203.294 72.9923 204.488 72.1943C206.016 71.1661 207.71 70.4091 209.497 69.9584L209.497 69.9584ZM218.083 26.3521C218.222 25.5638 218.417 24.7893 218.671 24.0303C218.846 23.328 219.09 22.6431 219.398 21.9876C219.785 21.1721 220.263 20.4014 220.824 19.6951C221.306 20.4736 221.693 21.3106 221.97 22.1847C222.208 22.9222 222.378 23.6811 222.475 24.4499C222.563 25.24 222.563 26.038 222.475 26.8263C222.182 29.306 221.059 31.6141 219.285 33.3718C218.251 31.1847 217.836 28.7576 218.083 26.3518L218.083 26.3521ZM227.677 44.3915C227.273 45.166 226.804 45.9055 226.278 46.602C225.292 47.9385 224.046 49.0604 222.614 49.9032C220.624 51.0524 218.247 51.3373 216.041 50.6856C216.53 49.7003 217.11 48.7638 217.775 47.8878C218.776 46.6742 219.99 45.6499 221.355 44.8675C223.353 43.6013 225.712 43.0296 228.069 43.2462C228.039 43.7769 227.928 44.0559 227.677 44.3915H227.677Z" fill="#BDC4E4"/>
</svg>
